<mxfile host="app.diagrams.net" agent="Mozilla/5.0 (Windows NT 10.0; Win64; x64) AppleWebKit/537.36 (KHTML, like Gecko) Chrome/129.0.0.0 Safari/537.36" version="24.7.12">
  <diagram name="Page-1" id="grC94iOEGyMsJ2W9lqzc">
    <mxGraphModel grid="1" page="1" gridSize="10" guides="1" tooltips="1" connect="1" arrows="1" fold="1" pageScale="1" pageWidth="850" pageHeight="1100" math="0" shadow="0">
      <root>
        <mxCell id="0" />
        <mxCell id="1" parent="0" />
        <mxCell id="9ddX-sPpyQBwOFnnFy43-9" style="edgeStyle=orthogonalEdgeStyle;rounded=0;orthogonalLoop=1;jettySize=auto;html=1;exitX=0.5;exitY=1;exitDx=0;exitDy=0;entryX=0.5;entryY=0;entryDx=0;entryDy=0;" edge="1" parent="1" source="9ddX-sPpyQBwOFnnFy43-1" target="9ddX-sPpyQBwOFnnFy43-8">
          <mxGeometry relative="1" as="geometry" />
        </mxCell>
        <mxCell id="9ddX-sPpyQBwOFnnFy43-1" value="start" style="ellipse;whiteSpace=wrap;html=1;" vertex="1" parent="1">
          <mxGeometry x="360" y="100" width="80" height="30" as="geometry" />
        </mxCell>
        <mxCell id="9ddX-sPpyQBwOFnnFy43-10" style="edgeStyle=orthogonalEdgeStyle;rounded=0;orthogonalLoop=1;jettySize=auto;html=1;" edge="1" parent="1" source="9ddX-sPpyQBwOFnnFy43-8" target="9ddX-sPpyQBwOFnnFy43-11">
          <mxGeometry relative="1" as="geometry">
            <mxPoint x="400" y="230" as="targetPoint" />
          </mxGeometry>
        </mxCell>
        <mxCell id="9ddX-sPpyQBwOFnnFy43-8" value="menu utama:&amp;nbsp;&lt;div&gt;1. Login&lt;/div&gt;&lt;div&gt;2. registrasi&lt;/div&gt;&lt;div&gt;3. Logout&lt;/div&gt;" style="shape=parallelogram;perimeter=parallelogramPerimeter;whiteSpace=wrap;html=1;fixedSize=1;" vertex="1" parent="1">
          <mxGeometry x="340" y="160" width="120" height="60" as="geometry" />
        </mxCell>
        <mxCell id="9ddX-sPpyQBwOFnnFy43-18" style="edgeStyle=orthogonalEdgeStyle;rounded=0;orthogonalLoop=1;jettySize=auto;html=1;exitX=0;exitY=0.5;exitDx=0;exitDy=0;entryX=1;entryY=0.5;entryDx=0;entryDy=0;" edge="1" parent="1" source="9ddX-sPpyQBwOFnnFy43-11" target="9ddX-sPpyQBwOFnnFy43-13">
          <mxGeometry relative="1" as="geometry" />
        </mxCell>
        <mxCell id="9ddX-sPpyQBwOFnnFy43-48" value="" style="edgeStyle=orthogonalEdgeStyle;rounded=0;orthogonalLoop=1;jettySize=auto;html=1;" edge="1" parent="1" source="9ddX-sPpyQBwOFnnFy43-11" target="9ddX-sPpyQBwOFnnFy43-45">
          <mxGeometry relative="1" as="geometry" />
        </mxCell>
        <mxCell id="9ddX-sPpyQBwOFnnFy43-11" value="login" style="rhombus;whiteSpace=wrap;html=1;" vertex="1" parent="1">
          <mxGeometry x="365" y="250" width="85" height="70" as="geometry" />
        </mxCell>
        <mxCell id="9ddX-sPpyQBwOFnnFy43-20" value="" style="edgeStyle=orthogonalEdgeStyle;rounded=0;orthogonalLoop=1;jettySize=auto;html=1;" edge="1" parent="1" source="9ddX-sPpyQBwOFnnFy43-13">
          <mxGeometry relative="1" as="geometry">
            <mxPoint x="260" y="340" as="targetPoint" />
          </mxGeometry>
        </mxCell>
        <mxCell id="9ddX-sPpyQBwOFnnFy43-13" value="input login admin" style="rounded=1;whiteSpace=wrap;html=1;" vertex="1" parent="1">
          <mxGeometry x="220" y="267.5" width="80" height="35" as="geometry" />
        </mxCell>
        <mxCell id="9ddX-sPpyQBwOFnnFy43-22" style="edgeStyle=orthogonalEdgeStyle;rounded=0;orthogonalLoop=1;jettySize=auto;html=1;" edge="1" parent="1" source="9ddX-sPpyQBwOFnnFy43-21">
          <mxGeometry relative="1" as="geometry">
            <mxPoint x="160" y="370" as="targetPoint" />
          </mxGeometry>
        </mxCell>
        <mxCell id="9ddX-sPpyQBwOFnnFy43-32" style="edgeStyle=orthogonalEdgeStyle;rounded=0;orthogonalLoop=1;jettySize=auto;html=1;exitX=0.5;exitY=1;exitDx=0;exitDy=0;entryX=0.5;entryY=0;entryDx=0;entryDy=0;" edge="1" parent="1" source="9ddX-sPpyQBwOFnnFy43-21" target="9ddX-sPpyQBwOFnnFy43-31">
          <mxGeometry relative="1" as="geometry" />
        </mxCell>
        <mxCell id="9ddX-sPpyQBwOFnnFy43-21" value="login berhasil" style="rhombus;whiteSpace=wrap;html=1;" vertex="1" parent="1">
          <mxGeometry x="230" y="340" width="65" height="60" as="geometry" />
        </mxCell>
        <mxCell id="9ddX-sPpyQBwOFnnFy43-25" style="edgeStyle=orthogonalEdgeStyle;rounded=0;orthogonalLoop=1;jettySize=auto;html=1;exitX=0.5;exitY=0;exitDx=0;exitDy=0;entryX=0;entryY=0.5;entryDx=0;entryDy=0;" edge="1" parent="1" source="9ddX-sPpyQBwOFnnFy43-23" target="9ddX-sPpyQBwOFnnFy43-8">
          <mxGeometry relative="1" as="geometry">
            <Array as="points">
              <mxPoint x="120" y="190" />
            </Array>
          </mxGeometry>
        </mxCell>
        <mxCell id="9ddX-sPpyQBwOFnnFy43-23" value="gagal login" style="rounded=1;whiteSpace=wrap;html=1;" vertex="1" parent="1">
          <mxGeometry x="80" y="350" width="80" height="40" as="geometry" />
        </mxCell>
        <mxCell id="9ddX-sPpyQBwOFnnFy43-119" style="edgeStyle=orthogonalEdgeStyle;rounded=0;orthogonalLoop=1;jettySize=auto;html=1;entryX=1;entryY=0.5;entryDx=0;entryDy=0;" edge="1" parent="1" source="9ddX-sPpyQBwOFnnFy43-31">
          <mxGeometry relative="1" as="geometry">
            <mxPoint x="170" y="465" as="targetPoint" />
          </mxGeometry>
        </mxCell>
        <mxCell id="9ddX-sPpyQBwOFnnFy43-31" value="menu admin" style="shape=parallelogram;perimeter=parallelogramPerimeter;whiteSpace=wrap;html=1;fixedSize=1;" vertex="1" parent="1">
          <mxGeometry x="207.5" y="440" width="110" height="50" as="geometry" />
        </mxCell>
        <mxCell id="9ddX-sPpyQBwOFnnFy43-35" style="edgeStyle=orthogonalEdgeStyle;rounded=0;orthogonalLoop=1;jettySize=auto;html=1;exitX=0.5;exitY=1;exitDx=0;exitDy=0;" edge="1" parent="1" source="9ddX-sPpyQBwOFnnFy43-34">
          <mxGeometry relative="1" as="geometry">
            <mxPoint x="130" y="660" as="targetPoint" />
          </mxGeometry>
        </mxCell>
        <mxCell id="9ddX-sPpyQBwOFnnFy43-129" value="" style="edgeStyle=orthogonalEdgeStyle;rounded=0;orthogonalLoop=1;jettySize=auto;html=1;" edge="1" parent="1" source="9ddX-sPpyQBwOFnnFy43-34" target="9ddX-sPpyQBwOFnnFy43-111">
          <mxGeometry relative="1" as="geometry" />
        </mxCell>
        <mxCell id="9ddX-sPpyQBwOFnnFy43-34" value="Tambah lomba" style="rhombus;whiteSpace=wrap;html=1;" vertex="1" parent="1">
          <mxGeometry x="85" y="530" width="90" height="90" as="geometry" />
        </mxCell>
        <mxCell id="9ddX-sPpyQBwOFnnFy43-37" style="edgeStyle=orthogonalEdgeStyle;rounded=0;orthogonalLoop=1;jettySize=auto;html=1;" edge="1" parent="1" source="9ddX-sPpyQBwOFnnFy43-36" target="9ddX-sPpyQBwOFnnFy43-38">
          <mxGeometry relative="1" as="geometry">
            <mxPoint x="130" y="800" as="targetPoint" />
          </mxGeometry>
        </mxCell>
        <mxCell id="9ddX-sPpyQBwOFnnFy43-108" style="edgeStyle=orthogonalEdgeStyle;rounded=0;orthogonalLoop=1;jettySize=auto;html=1;" edge="1" parent="1" source="9ddX-sPpyQBwOFnnFy43-36" target="9ddX-sPpyQBwOFnnFy43-109">
          <mxGeometry relative="1" as="geometry">
            <mxPoint x="-40" y="630" as="targetPoint" />
          </mxGeometry>
        </mxCell>
        <mxCell id="9ddX-sPpyQBwOFnnFy43-36" value="Lihat Lomba" style="rhombus;whiteSpace=wrap;html=1;" vertex="1" parent="1">
          <mxGeometry x="85" y="660" width="90" height="90" as="geometry" />
        </mxCell>
        <mxCell id="9ddX-sPpyQBwOFnnFy43-39" style="edgeStyle=orthogonalEdgeStyle;rounded=0;orthogonalLoop=1;jettySize=auto;html=1;" edge="1" parent="1" source="9ddX-sPpyQBwOFnnFy43-38" target="9ddX-sPpyQBwOFnnFy43-40">
          <mxGeometry relative="1" as="geometry">
            <mxPoint x="130" y="900" as="targetPoint" />
          </mxGeometry>
        </mxCell>
        <mxCell id="9ddX-sPpyQBwOFnnFy43-121" value="" style="edgeStyle=orthogonalEdgeStyle;rounded=0;orthogonalLoop=1;jettySize=auto;html=1;" edge="1" parent="1" source="9ddX-sPpyQBwOFnnFy43-38" target="9ddX-sPpyQBwOFnnFy43-107">
          <mxGeometry relative="1" as="geometry" />
        </mxCell>
        <mxCell id="9ddX-sPpyQBwOFnnFy43-38" value="Ubah Lomba" style="rhombus;whiteSpace=wrap;html=1;" vertex="1" parent="1">
          <mxGeometry x="85" y="780" width="90" height="90" as="geometry" />
        </mxCell>
        <mxCell id="9ddX-sPpyQBwOFnnFy43-41" style="edgeStyle=orthogonalEdgeStyle;rounded=0;orthogonalLoop=1;jettySize=auto;html=1;" edge="1" parent="1" source="9ddX-sPpyQBwOFnnFy43-40" target="9ddX-sPpyQBwOFnnFy43-42">
          <mxGeometry relative="1" as="geometry">
            <mxPoint x="130" y="1030" as="targetPoint" />
          </mxGeometry>
        </mxCell>
        <mxCell id="9ddX-sPpyQBwOFnnFy43-104" style="edgeStyle=orthogonalEdgeStyle;rounded=0;orthogonalLoop=1;jettySize=auto;html=1;" edge="1" parent="1" source="9ddX-sPpyQBwOFnnFy43-40" target="9ddX-sPpyQBwOFnnFy43-105">
          <mxGeometry relative="1" as="geometry">
            <mxPoint x="-30" y="910.0000000000002" as="targetPoint" />
          </mxGeometry>
        </mxCell>
        <mxCell id="9ddX-sPpyQBwOFnnFy43-40" value="Lihat Peserta Lomba" style="rhombus;whiteSpace=wrap;html=1;" vertex="1" parent="1">
          <mxGeometry x="80" y="935" width="100" height="100" as="geometry" />
        </mxCell>
        <mxCell id="9ddX-sPpyQBwOFnnFy43-44" value="" style="edgeStyle=orthogonalEdgeStyle;rounded=0;orthogonalLoop=1;jettySize=auto;html=1;" edge="1" parent="1" source="9ddX-sPpyQBwOFnnFy43-42" target="9ddX-sPpyQBwOFnnFy43-43">
          <mxGeometry relative="1" as="geometry" />
        </mxCell>
        <mxCell id="9ddX-sPpyQBwOFnnFy43-127" value="" style="edgeStyle=orthogonalEdgeStyle;rounded=0;orthogonalLoop=1;jettySize=auto;html=1;" edge="1" parent="1" source="9ddX-sPpyQBwOFnnFy43-42" target="9ddX-sPpyQBwOFnnFy43-103">
          <mxGeometry relative="1" as="geometry" />
        </mxCell>
        <mxCell id="9ddX-sPpyQBwOFnnFy43-42" value="Hapus peserta Lomba" style="rhombus;whiteSpace=wrap;html=1;" vertex="1" parent="1">
          <mxGeometry x="85" y="1085" width="90" height="80" as="geometry" />
        </mxCell>
        <mxCell id="9ddX-sPpyQBwOFnnFy43-46" style="edgeStyle=orthogonalEdgeStyle;rounded=0;orthogonalLoop=1;jettySize=auto;html=1;exitX=0.5;exitY=1;exitDx=0;exitDy=0;" edge="1" parent="1" source="9ddX-sPpyQBwOFnnFy43-43">
          <mxGeometry relative="1" as="geometry">
            <mxPoint x="350" y="1360" as="targetPoint" />
            <Array as="points">
              <mxPoint x="130" y="1360" />
            </Array>
          </mxGeometry>
        </mxCell>
        <mxCell id="9ddX-sPpyQBwOFnnFy43-130" style="edgeStyle=orthogonalEdgeStyle;rounded=0;orthogonalLoop=1;jettySize=auto;html=1;entryX=0.25;entryY=0;entryDx=0;entryDy=0;" edge="1" parent="1" source="9ddX-sPpyQBwOFnnFy43-43" target="9ddX-sPpyQBwOFnnFy43-31">
          <mxGeometry relative="1" as="geometry">
            <Array as="points">
              <mxPoint x="-340" y="1265" />
              <mxPoint x="-340" y="420" />
              <mxPoint x="235" y="420" />
            </Array>
          </mxGeometry>
        </mxCell>
        <mxCell id="9ddX-sPpyQBwOFnnFy43-43" value="Logout" style="rhombus;whiteSpace=wrap;html=1;" vertex="1" parent="1">
          <mxGeometry x="85" y="1215" width="90" height="100" as="geometry" />
        </mxCell>
        <mxCell id="9ddX-sPpyQBwOFnnFy43-59" style="edgeStyle=orthogonalEdgeStyle;rounded=0;orthogonalLoop=1;jettySize=auto;html=1;" edge="1" parent="1" source="9ddX-sPpyQBwOFnnFy43-45">
          <mxGeometry relative="1" as="geometry">
            <mxPoint x="570" y="350" as="targetPoint" />
          </mxGeometry>
        </mxCell>
        <mxCell id="9ddX-sPpyQBwOFnnFy43-45" value="Register" style="rounded=1;whiteSpace=wrap;html=1;" vertex="1" parent="1">
          <mxGeometry x="530" y="267.5" width="80" height="33.75" as="geometry" />
        </mxCell>
        <mxCell id="9ddX-sPpyQBwOFnnFy43-47" value="end" style="shape=parallelogram;perimeter=parallelogramPerimeter;whiteSpace=wrap;html=1;fixedSize=1;" vertex="1" parent="1">
          <mxGeometry x="347.5" y="1330" width="120" height="60" as="geometry" />
        </mxCell>
        <mxCell id="9ddX-sPpyQBwOFnnFy43-65" value="" style="edgeStyle=orthogonalEdgeStyle;rounded=0;orthogonalLoop=1;jettySize=auto;html=1;" edge="1" parent="1" target="9ddX-sPpyQBwOFnnFy43-64">
          <mxGeometry relative="1" as="geometry">
            <mxPoint x="585" y="725" as="sourcePoint" />
          </mxGeometry>
        </mxCell>
        <mxCell id="9ddX-sPpyQBwOFnnFy43-126" value="" style="edgeStyle=orthogonalEdgeStyle;rounded=0;orthogonalLoop=1;jettySize=auto;html=1;" edge="1" parent="1" source="9ddX-sPpyQBwOFnnFy43-55" target="9ddX-sPpyQBwOFnnFy43-122">
          <mxGeometry relative="1" as="geometry" />
        </mxCell>
        <mxCell id="9ddX-sPpyQBwOFnnFy43-55" value="menu user" style="shape=parallelogram;perimeter=parallelogramPerimeter;whiteSpace=wrap;html=1;fixedSize=1;" vertex="1" parent="1">
          <mxGeometry x="515" y="545" width="110" height="40" as="geometry" />
        </mxCell>
        <mxCell id="9ddX-sPpyQBwOFnnFy43-57" style="edgeStyle=orthogonalEdgeStyle;rounded=0;orthogonalLoop=1;jettySize=auto;html=1;entryX=0.5;entryY=0;entryDx=0;entryDy=0;" edge="1" parent="1">
          <mxGeometry relative="1" as="geometry">
            <mxPoint x="570" y="330" as="sourcePoint" />
            <mxPoint x="570" y="330" as="targetPoint" />
          </mxGeometry>
        </mxCell>
        <mxCell id="9ddX-sPpyQBwOFnnFy43-62" value="" style="edgeStyle=orthogonalEdgeStyle;rounded=0;orthogonalLoop=1;jettySize=auto;html=1;" edge="1" parent="1" source="9ddX-sPpyQBwOFnnFy43-58" target="9ddX-sPpyQBwOFnnFy43-61">
          <mxGeometry relative="1" as="geometry" />
        </mxCell>
        <mxCell id="9ddX-sPpyQBwOFnnFy43-58" value="input user" style="rounded=1;whiteSpace=wrap;html=1;" vertex="1" parent="1">
          <mxGeometry x="525" y="350" width="90" height="30" as="geometry" />
        </mxCell>
        <mxCell id="9ddX-sPpyQBwOFnnFy43-63" value="" style="edgeStyle=orthogonalEdgeStyle;rounded=0;orthogonalLoop=1;jettySize=auto;html=1;" edge="1" parent="1" source="9ddX-sPpyQBwOFnnFy43-61" target="9ddX-sPpyQBwOFnnFy43-55">
          <mxGeometry relative="1" as="geometry" />
        </mxCell>
        <mxCell id="9ddX-sPpyQBwOFnnFy43-87" style="edgeStyle=orthogonalEdgeStyle;rounded=0;orthogonalLoop=1;jettySize=auto;html=1;exitX=1;exitY=0.5;exitDx=0;exitDy=0;" edge="1" parent="1" source="9ddX-sPpyQBwOFnnFy43-61" target="9ddX-sPpyQBwOFnnFy43-88">
          <mxGeometry relative="1" as="geometry">
            <mxPoint x="710" y="464.38461538461524" as="targetPoint" />
          </mxGeometry>
        </mxCell>
        <mxCell id="9ddX-sPpyQBwOFnnFy43-61" value="login berhasil" style="rhombus;whiteSpace=wrap;html=1;" vertex="1" parent="1">
          <mxGeometry x="530" y="425" width="80" height="80" as="geometry" />
        </mxCell>
        <mxCell id="9ddX-sPpyQBwOFnnFy43-67" value="" style="edgeStyle=orthogonalEdgeStyle;rounded=0;orthogonalLoop=1;jettySize=auto;html=1;" edge="1" parent="1" source="9ddX-sPpyQBwOFnnFy43-64" target="9ddX-sPpyQBwOFnnFy43-66">
          <mxGeometry relative="1" as="geometry" />
        </mxCell>
        <mxCell id="9ddX-sPpyQBwOFnnFy43-83" style="edgeStyle=orthogonalEdgeStyle;rounded=0;orthogonalLoop=1;jettySize=auto;html=1;" edge="1" parent="1" source="9ddX-sPpyQBwOFnnFy43-64" target="9ddX-sPpyQBwOFnnFy43-84">
          <mxGeometry relative="1" as="geometry">
            <mxPoint x="475" y="825" as="targetPoint" />
          </mxGeometry>
        </mxCell>
        <mxCell id="9ddX-sPpyQBwOFnnFy43-64" value="lihat lomba" style="rhombus;whiteSpace=wrap;html=1;" vertex="1" parent="1">
          <mxGeometry x="545" y="785" width="80" height="80" as="geometry" />
        </mxCell>
        <mxCell id="9ddX-sPpyQBwOFnnFy43-69" value="" style="edgeStyle=orthogonalEdgeStyle;rounded=0;orthogonalLoop=1;jettySize=auto;html=1;" edge="1" parent="1" source="9ddX-sPpyQBwOFnnFy43-66" target="9ddX-sPpyQBwOFnnFy43-68">
          <mxGeometry relative="1" as="geometry" />
        </mxCell>
        <mxCell id="9ddX-sPpyQBwOFnnFy43-81" style="edgeStyle=orthogonalEdgeStyle;rounded=0;orthogonalLoop=1;jettySize=auto;html=1;exitX=0;exitY=0.5;exitDx=0;exitDy=0;" edge="1" parent="1" source="9ddX-sPpyQBwOFnnFy43-66" target="9ddX-sPpyQBwOFnnFy43-82">
          <mxGeometry relative="1" as="geometry">
            <mxPoint x="455" y="984.3846153846152" as="targetPoint" />
          </mxGeometry>
        </mxCell>
        <mxCell id="9ddX-sPpyQBwOFnnFy43-66" value="Pilih Lomba" style="rhombus;whiteSpace=wrap;html=1;" vertex="1" parent="1">
          <mxGeometry x="545" y="945" width="80" height="80" as="geometry" />
        </mxCell>
        <mxCell id="9ddX-sPpyQBwOFnnFy43-79" value="" style="edgeStyle=orthogonalEdgeStyle;rounded=0;orthogonalLoop=1;jettySize=auto;html=1;" edge="1" parent="1" source="9ddX-sPpyQBwOFnnFy43-68">
          <mxGeometry relative="1" as="geometry">
            <mxPoint x="485" y="1145" as="targetPoint" />
          </mxGeometry>
        </mxCell>
        <mxCell id="9ddX-sPpyQBwOFnnFy43-68" value="Lihat lomba yang di ikuti" style="rhombus;whiteSpace=wrap;html=1;" vertex="1" parent="1">
          <mxGeometry x="545" y="1105" width="80" height="80" as="geometry" />
        </mxCell>
        <mxCell id="9ddX-sPpyQBwOFnnFy43-82" value="memilih lomba" style="rounded=1;whiteSpace=wrap;html=1;" vertex="1" parent="1">
          <mxGeometry x="365" y="951.25" width="110" height="67.5" as="geometry" />
        </mxCell>
        <mxCell id="9ddX-sPpyQBwOFnnFy43-84" value="melihat lomba" style="rounded=1;whiteSpace=wrap;html=1;" vertex="1" parent="1">
          <mxGeometry x="370" y="793.75" width="105" height="62.5" as="geometry" />
        </mxCell>
        <mxCell id="9ddX-sPpyQBwOFnnFy43-85" value="&#xa;&lt;span style=&quot;color: rgb(0, 0, 0); font-family: Helvetica; font-size: 12px; font-style: normal; font-variant-ligatures: normal; font-variant-caps: normal; font-weight: 400; letter-spacing: normal; orphans: 2; text-align: center; text-indent: 0px; text-transform: none; widows: 2; word-spacing: 0px; -webkit-text-stroke-width: 0px; white-space: normal; background-color: rgb(251, 251, 251); text-decoration-thickness: initial; text-decoration-style: initial; text-decoration-color: initial; display: inline !important; float: none;&quot;&gt;&amp;nbsp;melihat lomba yang di ikuti&lt;/span&gt;&#xa;&#xa;" style="shape=parallelogram;perimeter=parallelogramPerimeter;whiteSpace=wrap;html=1;fixedSize=1;" vertex="1" parent="1">
          <mxGeometry x="355" y="1115" width="135" height="60" as="geometry" />
        </mxCell>
        <mxCell id="9ddX-sPpyQBwOFnnFy43-89" style="edgeStyle=orthogonalEdgeStyle;rounded=0;orthogonalLoop=1;jettySize=auto;html=1;entryX=1;entryY=0.25;entryDx=0;entryDy=0;" edge="1" parent="1" source="9ddX-sPpyQBwOFnnFy43-88" target="9ddX-sPpyQBwOFnnFy43-45">
          <mxGeometry relative="1" as="geometry">
            <Array as="points">
              <mxPoint x="720" y="276" />
            </Array>
          </mxGeometry>
        </mxCell>
        <mxCell id="9ddX-sPpyQBwOFnnFy43-88" value="gagal login" style="shape=parallelogram;perimeter=parallelogramPerimeter;whiteSpace=wrap;html=1;fixedSize=1;" vertex="1" parent="1">
          <mxGeometry x="650" y="435" width="120" height="60" as="geometry" />
        </mxCell>
        <mxCell id="9ddX-sPpyQBwOFnnFy43-92" value="" style="endArrow=none;html=1;rounded=0;entryX=0;entryY=0.5;entryDx=0;entryDy=0;" edge="1" parent="1" target="9ddX-sPpyQBwOFnnFy43-82">
          <mxGeometry width="50" height="50" relative="1" as="geometry">
            <mxPoint x="240" y="985" as="sourcePoint" />
            <mxPoint x="345" y="951.25" as="targetPoint" />
          </mxGeometry>
        </mxCell>
        <mxCell id="9ddX-sPpyQBwOFnnFy43-93" value="" style="endArrow=none;html=1;rounded=0;entryX=0;entryY=0.5;entryDx=0;entryDy=0;" edge="1" parent="1" target="9ddX-sPpyQBwOFnnFy43-85">
          <mxGeometry width="50" height="50" relative="1" as="geometry">
            <mxPoint x="230" y="1145" as="sourcePoint" />
            <mxPoint x="345" y="1120" as="targetPoint" />
          </mxGeometry>
        </mxCell>
        <mxCell id="9ddX-sPpyQBwOFnnFy43-96" value="" style="endArrow=none;html=1;rounded=0;entryX=0;entryY=0.5;entryDx=0;entryDy=0;" edge="1" parent="1" target="9ddX-sPpyQBwOFnnFy43-84">
          <mxGeometry width="50" height="50" relative="1" as="geometry">
            <mxPoint x="230" y="825" as="sourcePoint" />
            <mxPoint x="365" y="810" as="targetPoint" />
          </mxGeometry>
        </mxCell>
        <mxCell id="9ddX-sPpyQBwOFnnFy43-103" value="menghapus peserta" style="rounded=1;whiteSpace=wrap;html=1;" vertex="1" parent="1">
          <mxGeometry x="-110" y="1095" width="120" height="60" as="geometry" />
        </mxCell>
        <mxCell id="9ddX-sPpyQBwOFnnFy43-105" value="melihat nama peserta" style="shape=parallelogram;perimeter=parallelogramPerimeter;whiteSpace=wrap;html=1;fixedSize=1;" vertex="1" parent="1">
          <mxGeometry x="-90" y="955" width="120" height="60" as="geometry" />
        </mxCell>
        <mxCell id="9ddX-sPpyQBwOFnnFy43-107" value="mengubah lomba" style="rounded=1;whiteSpace=wrap;html=1;" vertex="1" parent="1">
          <mxGeometry x="-90" y="796.25" width="120" height="60" as="geometry" />
        </mxCell>
        <mxCell id="9ddX-sPpyQBwOFnnFy43-109" value="melihat lomba" style="shape=parallelogram;perimeter=parallelogramPerimeter;whiteSpace=wrap;html=1;fixedSize=1;" vertex="1" parent="1">
          <mxGeometry x="-100" y="675" width="120" height="60" as="geometry" />
        </mxCell>
        <mxCell id="9ddX-sPpyQBwOFnnFy43-111" value="menambah lomba" style="rounded=1;whiteSpace=wrap;html=1;" vertex="1" parent="1">
          <mxGeometry x="-90" y="545.0036363636362" width="120" height="60" as="geometry" />
        </mxCell>
        <mxCell id="9ddX-sPpyQBwOFnnFy43-160" style="edgeStyle=orthogonalEdgeStyle;rounded=0;orthogonalLoop=1;jettySize=auto;html=1;" edge="1" parent="1" source="9ddX-sPpyQBwOFnnFy43-120" target="9ddX-sPpyQBwOFnnFy43-34">
          <mxGeometry relative="1" as="geometry" />
        </mxCell>
        <mxCell id="9ddX-sPpyQBwOFnnFy43-120" value="data" style="shape=internalStorage;whiteSpace=wrap;html=1;backgroundOutline=1;" vertex="1" parent="1">
          <mxGeometry x="90" y="438" width="80" height="55" as="geometry" />
        </mxCell>
        <mxCell id="9ddX-sPpyQBwOFnnFy43-122" value="data" style="shape=internalStorage;whiteSpace=wrap;html=1;backgroundOutline=1;" vertex="1" parent="1">
          <mxGeometry x="530" y="650" width="80" height="80" as="geometry" />
        </mxCell>
        <mxCell id="9ddX-sPpyQBwOFnnFy43-131" value="" style="edgeStyle=orthogonalEdgeStyle;rounded=0;orthogonalLoop=1;jettySize=auto;html=1;" edge="1" parent="1" source="9ddX-sPpyQBwOFnnFy43-68" target="9ddX-sPpyQBwOFnnFy43-70">
          <mxGeometry relative="1" as="geometry">
            <mxPoint x="585" y="1185" as="sourcePoint" />
            <mxPoint x="585" y="1265" as="targetPoint" />
          </mxGeometry>
        </mxCell>
        <mxCell id="9ddX-sPpyQBwOFnnFy43-132" style="edgeStyle=orthogonalEdgeStyle;rounded=0;orthogonalLoop=1;jettySize=auto;html=1;" edge="1" parent="1" source="9ddX-sPpyQBwOFnnFy43-70">
          <mxGeometry relative="1" as="geometry">
            <mxPoint x="470" y="1360" as="targetPoint" />
            <Array as="points">
              <mxPoint x="585" y="1360" />
            </Array>
          </mxGeometry>
        </mxCell>
        <mxCell id="9ddX-sPpyQBwOFnnFy43-138" style="edgeStyle=orthogonalEdgeStyle;rounded=0;orthogonalLoop=1;jettySize=auto;html=1;entryX=0;entryY=0.5;entryDx=0;entryDy=0;" edge="1" parent="1" source="9ddX-sPpyQBwOFnnFy43-70" target="9ddX-sPpyQBwOFnnFy43-55">
          <mxGeometry relative="1" as="geometry">
            <Array as="points">
              <mxPoint x="230" y="1250" />
              <mxPoint x="230" y="565" />
            </Array>
          </mxGeometry>
        </mxCell>
        <mxCell id="9ddX-sPpyQBwOFnnFy43-70" value="Logout" style="rhombus;whiteSpace=wrap;html=1;" vertex="1" parent="1">
          <mxGeometry x="545" y="1210" width="80" height="80" as="geometry" />
        </mxCell>
        <mxCell id="9ddX-sPpyQBwOFnnFy43-133" value="" style="endArrow=none;html=1;rounded=0;entryX=0;entryY=0.5;entryDx=0;entryDy=0;" edge="1" parent="1" target="9ddX-sPpyQBwOFnnFy43-109">
          <mxGeometry width="50" height="50" relative="1" as="geometry">
            <mxPoint x="-340" y="705" as="sourcePoint" />
            <mxPoint x="160" y="710" as="targetPoint" />
            <Array as="points" />
          </mxGeometry>
        </mxCell>
        <mxCell id="9ddX-sPpyQBwOFnnFy43-134" value="" style="endArrow=none;html=1;rounded=0;" edge="1" parent="1">
          <mxGeometry width="50" height="50" relative="1" as="geometry">
            <mxPoint x="-330" y="830" as="sourcePoint" />
            <mxPoint x="-90" y="830" as="targetPoint" />
          </mxGeometry>
        </mxCell>
        <mxCell id="9ddX-sPpyQBwOFnnFy43-135" value="" style="endArrow=none;html=1;rounded=0;exitX=0;exitY=0.75;exitDx=0;exitDy=0;" edge="1" parent="1" source="9ddX-sPpyQBwOFnnFy43-105">
          <mxGeometry width="50" height="50" relative="1" as="geometry">
            <mxPoint x="110" y="900" as="sourcePoint" />
            <mxPoint x="-340" y="1000" as="targetPoint" />
          </mxGeometry>
        </mxCell>
        <mxCell id="9ddX-sPpyQBwOFnnFy43-136" value="" style="endArrow=none;html=1;rounded=0;" edge="1" parent="1" target="9ddX-sPpyQBwOFnnFy43-103">
          <mxGeometry width="50" height="50" relative="1" as="geometry">
            <mxPoint x="-340" y="1120" as="sourcePoint" />
            <mxPoint x="160" y="850" as="targetPoint" />
          </mxGeometry>
        </mxCell>
        <mxCell id="9ddX-sPpyQBwOFnnFy43-137" value="" style="endArrow=none;html=1;rounded=0;entryX=0;entryY=0.5;entryDx=0;entryDy=0;" edge="1" parent="1" target="9ddX-sPpyQBwOFnnFy43-111">
          <mxGeometry width="50" height="50" relative="1" as="geometry">
            <mxPoint x="-340" y="575" as="sourcePoint" />
            <mxPoint x="160" y="850" as="targetPoint" />
          </mxGeometry>
        </mxCell>
        <mxCell id="9ddX-sPpyQBwOFnnFy43-139" value="no" style="text;html=1;align=center;verticalAlign=middle;resizable=0;points=[];autosize=1;strokeColor=none;fillColor=none;" vertex="1" parent="1">
          <mxGeometry x="460" y="248" width="40" height="30" as="geometry" />
        </mxCell>
        <mxCell id="9ddX-sPpyQBwOFnnFy43-140" value="yes" style="text;html=1;align=center;verticalAlign=middle;resizable=0;points=[];autosize=1;strokeColor=none;fillColor=none;" vertex="1" parent="1">
          <mxGeometry x="320" y="258" width="40" height="30" as="geometry" />
        </mxCell>
        <mxCell id="9ddX-sPpyQBwOFnnFy43-141" value="no" style="text;html=1;align=center;verticalAlign=middle;resizable=0;points=[];autosize=1;strokeColor=none;fillColor=none;" vertex="1" parent="1">
          <mxGeometry x="610" y="438" width="40" height="30" as="geometry" />
        </mxCell>
        <mxCell id="9ddX-sPpyQBwOFnnFy43-142" value="yes" style="text;html=1;align=center;verticalAlign=middle;resizable=0;points=[];autosize=1;strokeColor=none;fillColor=none;" vertex="1" parent="1">
          <mxGeometry x="570" y="508" width="40" height="30" as="geometry" />
        </mxCell>
        <mxCell id="9ddX-sPpyQBwOFnnFy43-145" value="yes" style="text;html=1;align=center;verticalAlign=middle;resizable=0;points=[];autosize=1;strokeColor=none;fillColor=none;" vertex="1" parent="1">
          <mxGeometry x="490" y="798" width="40" height="30" as="geometry" />
        </mxCell>
        <mxCell id="9ddX-sPpyQBwOFnnFy43-146" value="no" style="text;html=1;align=center;verticalAlign=middle;resizable=0;points=[];autosize=1;strokeColor=none;fillColor=none;" vertex="1" parent="1">
          <mxGeometry x="580" y="898" width="40" height="30" as="geometry" />
        </mxCell>
        <mxCell id="9ddX-sPpyQBwOFnnFy43-147" value="yes" style="text;html=1;align=center;verticalAlign=middle;resizable=0;points=[];autosize=1;strokeColor=none;fillColor=none;" vertex="1" parent="1">
          <mxGeometry x="500" y="948" width="40" height="30" as="geometry" />
        </mxCell>
        <mxCell id="9ddX-sPpyQBwOFnnFy43-148" value="no" style="text;html=1;align=center;verticalAlign=middle;resizable=0;points=[];autosize=1;strokeColor=none;fillColor=none;" vertex="1" parent="1">
          <mxGeometry x="590" y="1058" width="40" height="30" as="geometry" />
        </mxCell>
        <mxCell id="9ddX-sPpyQBwOFnnFy43-149" value="yes" style="text;html=1;align=center;verticalAlign=middle;resizable=0;points=[];autosize=1;strokeColor=none;fillColor=none;" vertex="1" parent="1">
          <mxGeometry x="500" y="1108" width="40" height="30" as="geometry" />
        </mxCell>
        <mxCell id="9ddX-sPpyQBwOFnnFy43-150" value="no" style="text;html=1;align=center;verticalAlign=middle;resizable=0;points=[];autosize=1;strokeColor=none;fillColor=none;" vertex="1" parent="1">
          <mxGeometry x="120" y="1048" width="40" height="30" as="geometry" />
        </mxCell>
        <mxCell id="9ddX-sPpyQBwOFnnFy43-151" value="yes" style="text;html=1;align=center;verticalAlign=middle;resizable=0;points=[];autosize=1;strokeColor=none;fillColor=none;" vertex="1" parent="1">
          <mxGeometry x="30" y="1088" width="40" height="30" as="geometry" />
        </mxCell>
        <mxCell id="9ddX-sPpyQBwOFnnFy43-152" value="yes" style="text;html=1;align=center;verticalAlign=middle;resizable=0;points=[];autosize=1;strokeColor=none;fillColor=none;" vertex="1" parent="1">
          <mxGeometry x="40" y="958" width="40" height="30" as="geometry" />
        </mxCell>
        <mxCell id="9ddX-sPpyQBwOFnnFy43-153" value="no" style="text;html=1;align=center;verticalAlign=middle;resizable=0;points=[];autosize=1;strokeColor=none;fillColor=none;" vertex="1" parent="1">
          <mxGeometry x="130" y="888" width="40" height="30" as="geometry" />
        </mxCell>
        <mxCell id="9ddX-sPpyQBwOFnnFy43-155" value="yes" style="text;html=1;align=center;verticalAlign=middle;resizable=0;points=[];autosize=1;strokeColor=none;fillColor=none;" vertex="1" parent="1">
          <mxGeometry x="50" y="798" width="40" height="30" as="geometry" />
        </mxCell>
        <mxCell id="9ddX-sPpyQBwOFnnFy43-156" value="no" style="text;html=1;align=center;verticalAlign=middle;resizable=0;points=[];autosize=1;strokeColor=none;fillColor=none;" vertex="1" parent="1">
          <mxGeometry x="130" y="758" width="40" height="30" as="geometry" />
        </mxCell>
        <mxCell id="9ddX-sPpyQBwOFnnFy43-158" value="yes" style="text;html=1;align=center;verticalAlign=middle;resizable=0;points=[];autosize=1;strokeColor=none;fillColor=none;" vertex="1" parent="1">
          <mxGeometry x="40" y="658" width="40" height="30" as="geometry" />
        </mxCell>
        <mxCell id="9ddX-sPpyQBwOFnnFy43-159" value="no" style="text;html=1;align=center;verticalAlign=middle;resizable=0;points=[];autosize=1;strokeColor=none;fillColor=none;" vertex="1" parent="1">
          <mxGeometry x="130" y="618" width="40" height="30" as="geometry" />
        </mxCell>
        <mxCell id="9ddX-sPpyQBwOFnnFy43-161" value="yes" style="text;html=1;align=center;verticalAlign=middle;resizable=0;points=[];autosize=1;strokeColor=none;fillColor=none;" vertex="1" parent="1">
          <mxGeometry x="40" y="548" width="40" height="30" as="geometry" />
        </mxCell>
        <mxCell id="9ddX-sPpyQBwOFnnFy43-162" value="no" style="text;html=1;align=center;verticalAlign=middle;resizable=0;points=[];autosize=1;strokeColor=none;fillColor=none;" vertex="1" parent="1">
          <mxGeometry x="130" y="508" width="40" height="30" as="geometry" />
        </mxCell>
      </root>
    </mxGraphModel>
  </diagram>
</mxfile>
